<?xml version="1.0" standalone="no"?>
<!DOCTYPE svg PUBLIC "-//W3C//DTD SVG 20010904//EN"
 "http://www.w3.org/TR/2001/REC-SVG-20010904/DTD/svg10.dtd">
<svg version="1.0" xmlns="http://www.w3.org/2000/svg"
 width="329.000000pt" height="153.000000pt" viewBox="0 0 329.000000 153.000000"
 preserveAspectRatio="xMidYMid meet">

<g transform="translate(0.000000,153.000000) scale(0.100000,-0.100000)"
fill="#000000" stroke="none">
<path d="M600 1229 c-118 -21 -245 -43 -282 -49 l-68 -12 0 -404 c0 -222 3
-404 8 -404 8 0 522 -87 562 -95 24 -5 25 -4 25 52 l0 58 205 5 205 5 3 379
c1 271 -1 383 -9 392 -9 11 -54 14 -211 14 l-200 0 4 50 c2 40 0 50 -12 49 -8
-1 -112 -18 -230 -40z m630 -459 l0 -370 -192 2 -193 3 -3 83 c-2 45 1 82 5
82 4 0 25 -19 45 -42 l37 -43 60 60 c34 33 61 64 61 70 0 6 -27 37 -61 70
l-61 60 -37 -42 c-20 -24 -40 -43 -44 -43 -4 0 -7 79 -7 175 l0 175 110 0 110
0 0 -85 0 -85 -42 0 -42 0 53 -54 54 -54 47 51 48 52 -39 3 -39 3 0 104 0 104
-127 3 -128 3 -3 28 c-7 58 -9 57 198 57 l190 0 0 -370z m-630 182 c42 -20 62
-68 53 -127 -10 -71 -57 -115 -123 -115 l-30 0 0 -65 0 -65 -35 0 -35 0 0 189
0 190 38 4 c78 8 98 6 132 -11z"/>
<path d="M502 838 c2 -39 7 -54 19 -56 24 -4 49 25 49 57 0 33 -16 51 -48 51
-22 0 -23 -3 -20 -52z"/>
<path d="M2320 930 c0 -13 7 -20 20 -20 13 0 20 7 20 20 0 13 -7 20 -20 20
-13 0 -20 -7 -20 -20z"/>
<path d="M1615 766 c-1 -162 1 -176 17 -176 15 0 18 9 18 65 0 64 0 65 28 65
46 0 97 19 122 45 34 37 33 107 -3 143 -24 24 -37 27 -105 30 l-77 4 0 -176z
m157 114 c43 -54 5 -118 -76 -127 l-46 -6 0 83 0 83 52 -5 c38 -4 57 -12 70
-28z"/>
<path d="M2923 903 c-7 -2 -13 -18 -13 -34 0 -22 -5 -29 -20 -29 -11 0 -20 -7
-20 -15 0 -8 9 -15 19 -15 17 0 19 -10 23 -96 3 -87 5 -98 27 -115 26 -21 62
-22 69 -1 2 7 -5 12 -15 12 -35 0 -43 21 -43 112 l0 88 30 0 c20 0 30 5 30 15
0 10 -10 15 -30 15 -28 0 -30 3 -30 35 0 35 -3 38 -27 28z"/>
<path d="M1880 715 c0 -117 1 -125 19 -125 18 0 20 9 23 98 4 128 0 152 -23
152 -18 0 -19 -9 -19 -125z"/>
<path d="M1947 822 c-23 -25 -21 -35 2 -22 11 5 29 10 40 10 12 0 21 7 21 15
0 21 -43 19 -63 -3z"/>
<path d="M2074 821 c-65 -40 -73 -154 -13 -209 50 -48 153 -32 183 27 19 36
21 110 4 146 -24 54 -115 72 -174 36z m130 -31 c11 -11 21 -37 23 -67 5 -42 1
-53 -22 -81 -47 -56 -124 -37 -144 35 -29 104 72 183 143 113z"/>
<path d="M2320 692 c0 -166 -8 -192 -61 -192 -19 0 -29 -5 -29 -15 0 -19 57
-20 81 -2 33 26 39 55 39 206 0 128 -2 151 -15 151 -13 0 -15 -23 -15 -148z"/>
<path d="M2474 830 c-53 -21 -79 -128 -47 -190 24 -47 80 -67 141 -51 27 8 42
17 42 27 0 12 -5 14 -17 8 -10 -4 -35 -9 -55 -12 -30 -3 -42 1 -62 22 -15 14
-26 37 -26 51 0 25 0 25 90 25 65 0 90 3 90 13 0 33 -23 88 -43 102 -23 16
-79 19 -113 5z m98 -37 c10 -9 18 -27 18 -40 0 -22 -3 -23 -70 -23 -78 0 -85
8 -49 54 24 31 72 35 101 9z"/>
<path d="M2717 822 c-35 -22 -62 -90 -54 -138 8 -48 50 -91 96 -99 43 -7 88 7
88 28 0 12 -5 13 -23 5 -33 -16 -89 -1 -108 27 -18 28 -21 97 -5 127 16 30 72
50 105 38 30 -12 39 -8 31 15 -9 21 -94 20 -130 -3z"/>
</g>
</svg>